# xmcd
#
# Track frame offsets:
# 150
# 15168
# 30803
# 46928
# 63058
# 77753
# 101453
# 112600
#
# Disc length: 1685 seconds
#
#
# Revision: 0
# Processed by: cddbd v1.5.1PL2 Copyright (c) Steve Scherf et al.
# Submitted via: FreeRIP 2.944 
#
DISCID=40069308
DTITLE=B.B. King - Mr. Blues
DYEAR=1993
DGENRE=Blues
TTITLE0=B.B. Boogie
TTITLE1=Walkin' And Cryin'
TTITLE2=It's My Own Fault
TTITLE3=The Other Night Blues
TTITLE4=Mr. Pawnbroker
TTITLE5=You've Done Lost Your Good Thing Now
TTITLE6=Catfish Blues
TTITLE7=Save A Seat For Me
EXTD=
EXTT0=
EXTT1=
EXTT2=
EXTT3=
EXTT4=
EXTT5=
EXTT6=
EXTT7=
PLAYORDER=
